<?xml version="1.0" encoding="UTF-8" standalone="no"?>
<svg
   xmlns:dc="http://purl.org/dc/elements/1.1/"
   xmlns:cc="http://creativecommons.org/ns#"
   xmlns:rdf="http://www.w3.org/1999/02/22-rdf-syntax-ns#"
   xmlns:svg="http://www.w3.org/2000/svg"
   xmlns="http://www.w3.org/2000/svg"
   viewBox="0 0 714.71997 1133.8533"
   height="1133.8533"
   width="714.71997"
   xml:space="preserve"
   id="svg2"
   version="1.1"><metadata
     id="metadata8"><rdf:RDF><cc:Work
         rdf:about=""><dc:format>image/svg+xml</dc:format><dc:type
           rdf:resource="http://purl.org/dc/dcmitype/StillImage" /></cc:Work></rdf:RDF></metadata><defs
     id="defs6"><clipPath
       id="clipPath20"
       clipPathUnits="userSpaceOnUse"><path
         id="path18"
         d="M 0,0 H 5360 V 8503.94 H 0 Z" /></clipPath></defs><g
     transform="matrix(1.3333333,0,0,-1.3333333,0,1133.8533)"
     id="g10"><g
       transform="scale(0.1)"
       id="g12"><g
         id="g14"><g
           clip-path="url(#clipPath20)"
           id="g16"><path
             id="path22"
             style="fill:#0091ff;fill-opacity:1;fill-rule:nonzero;stroke:none"
             d="M 2680.23,8503.94 C 1200,8503.94 0,7303.97 0,5823.75 0,4343.48 1200,3143.52 2680.23,3143.52 c 1480.3,0 2680.22,1199.96 2680.22,2680.23 0,1480.22 -1199.92,2680.19 -2680.22,2680.19 v 0" /><path
             id="path24"
             style="fill:#000000;fill-opacity:1;fill-rule:nonzero;stroke:none"
             d="M 644.082,613.711 C 576.895,522.859 486.836,477.41 373.867,477.41 c -113.738,0 -200,39.16 -258.758,117.379 C 56.3164,673.051 26.9336,786.961 26.9336,936.59 V 1739.2 H 350.969 V 928.5 c 1.523,-120.582 41.601,-180.879 120.222,-180.879 74.024,0 127.461,32.047 160.293,96.188 V 1739.2 H 957.812 V 500.34 h -304.57 l -9.16,113.371 v 0" /><path
             id="path26"
             style="fill:#000000;fill-opacity:1;fill-rule:nonzero;stroke:none"
             d="m 1793.89,1161.08 c 0,120.27 -13.16,205.19 -39.5,255 -26.32,49.78 -70.8,74.67 -133.39,74.67 -66.4,0 -114.89,-27.99 -145.41,-83.85 V 824.609 c 28.99,-53.55 78.23,-80.39 147.71,-80.39 64.12,0 108.57,27.211 133.38,81.57 24.8,54.289 37.21,138.961 37.21,253.801 z m 322.9,-80.24 c 0,-194.61 -33.43,-343.922 -100.19,-447.692 -66.8,-103.769 -166.23,-155.738 -298.26,-155.738 -100.78,0 -181.7,40.84 -242.75,122.551 V 24.0117 H 1151.56 V 1739.2 h 299.98 L 1463,1625.86 c 61.82,90.79 146.16,136.23 253.04,136.23 132.05,0 231.46,-48.1 298.26,-144.27 66.77,-96.17 100.95,-243.52 102.49,-441.98 v -95" /><path
             id="path28"
             style="fill:#000000;fill-opacity:1;fill-rule:nonzero;stroke:none"
             d="m 2556.73,1076.27 c 0,-122.161 12.94,-207.418 38.91,-255.969 25.96,-48.422 69.86,-72.68 131.68,-72.68 64.11,0 112.56,28.668 145.45,85.938 v 565.611 c -32.08,61.03 -80.16,91.58 -144.29,91.58 -59.54,0 -103.07,-24.08 -130.53,-72.15 -27.48,-48.09 -41.22,-133.56 -41.22,-256.49 z m -325.19,81.23 c 0,203.13 34.37,354.61 103.06,454.65 68.69,99.92 168.68,149.94 299.98,149.94 95.4,0 174.79,-41.23 238.19,-123.69 v 620.57 h 326.25 V 500.34 h -294.21 l -14.92,125.93 c -66.41,-99.211 -151.88,-148.86 -256.45,-148.86 -129.78,0 -228.81,49.649 -297.13,148.86 -68.32,99.199 -103.24,245.019 -104.77,437.37 v 93.86" /><path
             id="path30"
             style="fill:#000000;fill-opacity:1;fill-rule:nonzero;stroke:none"
             d="m 3797.03,731.629 c 35.88,0 66.37,7.199 91.56,21.75 25.21,14.48 43.91,31.641 56.16,51.512 v 257.649 h -77.88 c -54.93,0 -98.3,-17.58 -130,-52.67 -31.62,-35.159 -47.48,-82.05 -47.48,-140.839 0,-91.621 35.88,-137.402 107.64,-137.402 z M 3988.26,500.34 c -9.15,19.039 -18.32,51.09 -27.49,96.148 -58.05,-79.398 -136.65,-119.078 -235.86,-119.078 -103.87,0 -189.92,34.348 -258.23,103.039 -68.26,68.719 -102.46,157.641 -102.46,266.821 0,129.73 41.41,230.12 124.24,301.11 82.8,71 202.1,107.25 357.81,108.81 h 98.48 v 99.59 c 0,55.67 -9.61,95.04 -28.67,117.97 -19.05,22.87 -46.89,34.34 -83.53,34.34 -80.98,0 -121.4,-47.39 -121.4,-142 h -324.04 c 0,114.52 42.91,208.91 128.83,283.36 85.81,74.4 194.43,111.64 325.76,111.64 135.86,0 240.96,-35.33 315.42,-105.93 74.38,-70.55 111.62,-171.53 111.62,-302.82 V 770.551 c 1.54,-106.891 16.76,-190.43 45.78,-250.723 V 500.34 h -326.26 v 0" /><path
             id="path32"
             style="fill:#000000;fill-opacity:1;fill-rule:nonzero;stroke:none"
             d="m 4846.09,1039.63 164.89,699.57 h 345.77 L 4949.16,314.852 C 4888.05,104.98 4773.18,0 4604.47,0 4565.55,0 4521.32,7.26953 4471.66,21.7188 V 274.809 l 37.84,-1.207 c 50.34,0 88.32,9.777 113.9,29.199 25.55,19.488 44.81,53.258 57.82,101.328 l 25.19,83.633 -357.22,1251.438 h 348.06 l 148.84,-699.57 v 0" /><path
             id="path34"
             style="fill:#ffffff;fill-opacity:1;fill-rule:nonzero;stroke:none"
             d="m 4422.39,5823.75 c 0,-962.18 -779.98,-1742.16 -1742.15,-1742.16 -962.15,0 -1742.131,779.98 -1742.131,1742.16 h 857.671 c 0,-488.51 395.98,-884.51 884.46,-884.51 488.52,0 884.45,396 884.45,884.51 h 857.7 v 0" /></g></g></g></g></svg>